<?xml version="1.0" encoding="UTF-8"?>
<svg version="1.1" xmlns="http://www.w3.org/2000/svg" width="2000" height="1435">
<path d="M0 0 C0.21059052 0.55961929 0.42118103 1.11923859 0.63815308 1.69581604 C10.05458929 26.71542158 19.48441401 51.72925683 29.0625 76.6875 C35.174569 92.61418183 41.25885558 108.55101434 47.3125 124.5 C54.02152054 142.17439443 60.75222249 159.84036595 67.5 177.5 C74.18405951 194.99342383 80.85283976 212.4925218 87.5 230 C94.107706 247.40245443 100.73326851 264.79800236 107.375 282.1875 C108.02900787 283.89986343 108.02900787 283.89986343 108.69622803 285.64682007 C111.79690704 293.76476768 114.89836505 301.88241759 118 310 C121.54220092 319.2706293 125.08405826 328.54138966 128.625 337.8125 C129.06116638 338.95447845 129.49733276 340.09645691 129.94671631 341.27304077 C136.53843258 358.53353572 143.10931428 375.80185983 149.6675415 393.07510376 C156.36673111 410.71858846 163.09377012 428.35133531 169.82998657 445.98071289 C176.91174466 464.51548367 183.96982249 483.05911883 191.00512695 501.61157227 C195.03778069 512.24030302 199.09519606 522.85892533 203.1875 533.46484375 C204.03431079 535.66274126 204.88107261 537.86065764 205.7277832 540.05859375 C207.3354073 544.23131783 208.94949326 548.40146482 210.56713867 552.5703125 C211.28849439 554.44131154 212.00961769 556.31240022 212.73046875 558.18359375 C213.06381226 559.03727036 213.39715576 559.89094696 213.74060059 560.77049255 C214.04042847 561.55191116 214.34025635 562.33332977 214.64916992 563.13842773 C214.9116301 563.81590561 215.17409027 564.49338348 215.44450378 565.19139099 C216 567 216 567 216 570 C214.92484131 570.40500732 213.84968262 570.81001465 212.74194336 571.22729492 C182.81590215 582.50352443 152.92946049 593.88154128 123.05810547 605.30175781 C111.43547366 609.7452033 99.81169445 614.18564425 88.1875 618.625 C86.4752121 619.27897766 86.4752121 619.27897766 84.72833252 619.94616699 C67.46738158 626.53807121 50.19860111 633.10913927 32.92489624 639.6675415 C16.44258008 645.92583815 -0.03077126 652.20734857 -16.5 658.5 C-33.99344995 665.18399137 -51.49252164 671.8528397 -69 678.5 C-86.40245443 685.107706 -103.79800236 691.73326851 -121.1875 698.375 C-122.89986343 699.02900787 -122.89986343 699.02900787 -124.64682007 699.69622803 C-132.76476768 702.79690704 -140.88241759 705.89836505 -149 709 C-158.2706293 712.54220092 -167.54138966 716.08405826 -176.8125 719.625 C-177.95447845 720.06116638 -179.09645691 720.49733276 -180.27304077 720.94671631 C-197.53085661 727.53740943 -214.79655484 734.10712566 -232.06704712 740.66452026 C-247.54504922 746.5417068 -263.01619816 752.4366286 -278.48254395 758.34442139 C-281.96161187 759.67284217 -285.44118516 760.99993086 -288.92089844 762.32666016 C-298.82646052 766.10471877 -308.72944192 769.88845169 -318.61413574 773.72084045 C-322.56686393 775.25270812 -326.52206471 776.77812662 -330.47753906 778.30288696 C-332.31089687 779.01184801 -334.14295647 779.72417632 -335.97363281 780.44003296 C-338.4636833 781.4136198 -340.9577844 782.37600831 -343.453125 783.3359375 C-344.18154602 783.62434006 -344.90996704 783.91274261 -345.66046143 784.20988464 C-350.65830421 786.1138986 -350.65830421 786.1138986 -354 785 C-355.03015137 783.12818909 -355.03015137 783.12818909 -355.96679688 780.63110352 C-356.32644531 779.68940811 -356.68609375 778.74771271 -357.05664062 777.77748108 C-357.44013672 776.73845139 -357.82363281 775.69942169 -358.21875 774.62890625 C-358.62867188 773.54624985 -359.03859375 772.46359344 -359.4609375 771.34812927 C-360.81791802 767.75682604 -362.15880229 764.159724 -363.5 760.5625 C-364.44610247 758.04659409 -365.39581892 755.53205828 -366.34570312 753.01757812 C-368.29631125 747.85003941 -370.24026315 742.68004651 -372.1796875 737.50830078 C-375.87087274 727.66817507 -379.60968825 717.84625003 -383.34912109 708.02438354 C-384.51142806 704.96996831 -385.67202127 701.91490742 -386.83203125 698.85961914 C-392.70211286 683.3990493 -398.59756166 667.94824197 -404.5 652.5 C-411.22362544 634.90162649 -417.93531964 617.29880691 -424.625 599.6875 C-425.20849213 598.15142593 -425.20849213 598.15142593 -425.80377197 596.58432007 C-428.92556452 588.36547727 -432.04618544 580.14618973 -435.16674805 571.92687988 C-437.90227537 564.72187511 -440.63828304 557.51705299 -443.375 550.3125 C-443.76383362 549.28885345 -444.15266724 548.26520691 -444.55328369 547.21054077 C-451.29292041 529.4702113 -458.05916427 511.74010588 -464.8324585 494.01260376 C-471.46308316 476.65772127 -478.07267719 459.29497785 -484.66699219 441.92626953 C-490.92547828 425.4434981 -497.20717266 408.96968914 -503.5 392.5 C-510.18399129 375.00655026 -516.85292761 357.50751163 -523.5 340 C-529.76492975 323.49938956 -536.04642667 307.00520123 -542.34442139 290.5171814 C-543.67265795 287.03886755 -544.99980507 283.56013987 -546.32666016 280.08129883 C-550.10873064 270.16800481 -553.89552469 260.25677941 -557.72084045 250.3600769 C-559.25194426 246.3973371 -560.77771673 242.43255595 -562.30288696 238.4675293 C-563.01246115 236.62757682 -563.72480366 234.78868933 -564.44003296 232.95092773 C-565.41212662 230.4529164 -566.37506349 227.95156259 -567.3359375 225.44921875 C-567.62434006 224.71563644 -567.91274261 223.98205414 -568.20988464 223.22624207 C-568.86538598 221.50542246 -569.44132154 219.75464541 -570 218 C-568.62883058 215.25766117 -567.28479876 215.15433645 -564.43505859 214.08666992 C-562.95635033 213.52662262 -562.95635033 213.52662262 -561.44776917 212.95526123 C-560.35898972 212.55107971 -559.27021027 212.14689819 -558.1484375 211.73046875 C-556.44487343 211.08830414 -556.44487343 211.08830414 -554.70689392 210.4331665 C-552.23422619 209.50202427 -549.76075537 208.57347886 -547.28555298 207.6491394 C-543.33504747 206.17371226 -539.38825515 204.68853569 -535.44213867 203.20141602 C-531.35276352 201.66067867 -527.26325853 200.12029911 -523.17259216 198.58299255 C-510.99251574 194.0049262 -498.83283963 189.3742687 -486.67959595 184.72543335 C-483.28564852 183.42722916 -479.891298 182.13008431 -476.49682617 180.83325195 C-471.94729339 179.09507956 -467.3978902 177.35656885 -462.84863281 175.61767578 C-451.29557573 171.20173881 -439.74176767 166.78776844 -428.1875 162.375 C-427.04479645 161.93856171 -425.9020929 161.50212341 -424.72476196 161.05245972 C-407.46331119 154.46037 -390.19387317 147.88953726 -372.91986084 141.33044434 C-356.5443288 135.11205194 -340.17604059 128.87487824 -323.8125 122.625 C-322.67092438 122.18899475 -321.52934875 121.7529895 -320.35317993 121.30377197 C-312.23523232 118.20309296 -304.11758241 115.10163495 -296 112 C-286.7293707 108.45779908 -277.45861034 104.91594174 -268.1875 101.375 C-267.04552155 100.93883362 -265.90354309 100.50266724 -264.72695923 100.05328369 C-247.46477494 93.46092227 -230.19460441 86.88981491 -212.91986084 80.33044434 C-196.5443288 74.11205194 -180.17604059 67.87487824 -163.8125 61.625 C-162.10013657 60.97099213 -162.10013657 60.97099213 -160.35317993 60.30377197 C-152.23523232 57.20309296 -144.11758241 54.10163495 -136 51 C-103.74878284 38.67718056 -71.49207061 26.36931259 -39.21266174 14.12049866 C-33.30786517 11.87896119 -27.40665353 9.62825098 -21.5078125 7.37109375 C-19.46422639 6.59051091 -17.42052956 5.81021897 -15.37677002 5.03009033 C-13.5632713 4.33669203 -11.75109297 3.63984345 -9.93896484 2.94287109 C-8.89691895 2.54535645 -7.85487305 2.1478418 -6.78125 1.73828125 C-5.89501953 1.39837158 -5.00878906 1.05846191 -4.09570312 0.70825195 C-2 0 -2 0 0 0 Z " fill="#0073D9" transform="translate(1712,265)"/>
<path d="M0 0 C230.34 0 460.68 0 698 0 C704.93 19.8 711.86 39.6 719 60 C723.67161121 73.16544977 728.34671006 86.32926408 733.03759766 99.48779297 C736.51790096 109.25784313 739.97663041 119.03555327 743.4375 128.8125 C744.15006061 130.8251969 744.86262572 132.83789222 745.57519531 134.85058594 C747.00320242 138.88423842 748.43107688 142.91793784 749.85888672 146.95166016 C753.05092604 155.96919396 756.24478445 164.9860835 759.43850708 174.00302124 C761.20907936 179.00198772 762.97953371 184.00099598 764.75 189 C765.45833277 191.0000002 766.1666661 193.0000002 766.875 195 C779.625 231 792.375 267 805.125 303 C805.65097527 304.48510574 805.65097527 304.48510574 806.18757629 306.00021362 C806.89565682 307.99950101 807.60373584 309.99878894 808.31181335 311.99807739 C810.08650226 317.00898471 811.86121762 322.01988266 813.63598633 327.03076172 C816.77749738 335.9005777 819.91886172 344.77044541 823.05917358 353.64068604 C831.36342362 377.09711522 839.6773496 400.55009409 848 424 C856.66164757 448.40506461 865.3130889 472.81372547 873.95556641 497.22558594 C877.11371287 506.14598117 880.27315695 515.06591685 883.4324646 523.98590088 C885.20502588 528.99058306 886.97750912 533.99529289 888.75 539 C889.45833296 541.00000013 890.16666629 543.00000013 890.875 545 C897.95833333 565 905.04166667 585 912.125 605 C912.47555954 605.98981369 912.82611908 606.97962738 913.18730164 607.99943542 C913.89629995 610.00131601 914.60529449 612.00319793 915.31428528 614.00508118 C917.07491365 618.97631915 918.83560556 623.94753461 920.59643555 628.91870117 C923.90565449 638.2614871 927.21421786 647.60450377 930.5206604 656.94827271 C932.07652381 661.34491256 933.63273133 665.74143059 935.18896484 670.13793945 C935.92823171 672.22674584 936.66733136 674.31561142 937.40625 676.40454102 C938.10290315 678.37396283 938.79986297 680.34327621 939.49716187 682.31246948 C940.14608498 684.14626622 940.79377683 685.98049924 941.44009399 687.81521606 C943.35556814 693.23997356 945.3444452 698.62779537 947.49291992 703.96557617 C948.08272674 706.3319027 947.78206802 707.71711083 947 710 C946.33097656 709.46632813 945.66195312 708.93265625 944.97265625 708.3828125 C902.14026397 675.15177527 844.67194369 661.89823805 791.31176758 668.5871582 C781.01419954 670.00913132 771.00560778 672.19990033 761 675 C759.90292725 675.29849854 759.90292725 675.29849854 758.78369141 675.60302734 C731.46664638 683.21638319 705.12516083 698.13706111 684 717 C683.50709473 717.43940918 683.01418945 717.87881836 682.50634766 718.33154297 C678.95839953 721.50683049 675.47024845 724.74006964 672 728 C671.36449219 728.58136719 670.72898437 729.16273438 670.07421875 729.76171875 C635.25122339 762.75629908 620.75817093 809.93463257 615 856 C504.45 856 393.9 856 280 856 C278.515 843.13 278.515 843.13 277 830 C265.97129888 775.15456739 237.40453227 727.43024324 190.625 695.875 C144.99263906 665.86814061 87.44521808 655.91073024 33.7265625 665.91015625 C23.96047821 667.99278309 14.29641853 671.37508557 5.0859375 675.21484375 C3 676 3 676 0 676 C0 452.92 0 229.84 0 0 Z M59 68 C59 212.87 59 357.74 59 507 C131.27 507 203.54 507 278 507 C278 362.13 278 217.26 278 68 C205.73 68 133.46 68 59 68 Z M352 68 C352 212.87 352 357.74 352 507 C497.2 507 642.4 507 792 507 C784.59749534 483.0842157 777.20165881 459.19746102 769.45046234 435.39798737 C767.40682079 429.11778368 765.37341956 422.83424995 763.33984375 416.55078125 C763.11345467 415.85144722 762.88706558 415.15211319 762.65381622 414.43158722 C757.98971091 400.01840504 753.41973281 385.57627438 748.875 371.125 C742.82559832 351.89185064 736.69774842 332.68586369 730.5 313.5 C724.28211731 294.25144523 718.13355277 274.98286623 712.0625 255.6875 C705.58816075 235.11089343 699.00975061 214.56995093 692.36795044 194.04698563 C685.32122222 172.27179981 678.372377 150.46794335 671.52539062 128.62890625 C665.15970327 108.36941433 658.56516485 88.20050724 652 68 C553 68 454 68 352 68 Z " fill="#0073D9" transform="translate(168,322)"/>
<path d="M0 0 C0.94749451 1.66853333 0.94749451 1.66853333 1.76733398 3.87817383 C2.08375854 4.71340073 2.40018311 5.54862762 2.72619629 6.40916443 C3.06276245 7.33246048 3.39932861 8.25575653 3.74609375 9.20703125 C4.10884399 10.17314835 4.47159424 11.13926544 4.84533691 12.13465881 C5.63562664 14.24339465 6.42065857 16.35410648 7.20114136 18.4664917 C8.45357465 21.85600349 9.71908927 25.24035722 10.98852539 28.62353516 C12.31822421 32.16747663 13.6471719 35.71167676 14.97215271 39.25738525 C19.14489306 50.42054528 23.40984539 61.54708973 27.69946289 72.66577148 C28.95005054 75.90753338 30.19891057 79.14995589 31.44726562 82.39257812 C33.12703959 86.75558882 34.80734781 91.11839291 36.48828125 95.48095703 C40.64041961 106.25721479 44.79010267 117.03441671 48.9375 127.8125 C49.34829803 128.87998474 49.75909607 129.94746948 50.18234253 131.04730225 C57.09282573 149.00796345 63.96294286 166.98386217 70.82147217 184.9644165 C79.6761118 208.17587397 88.5887766 231.36476225 97.51611328 254.54833984 C102.0982797 266.44872159 106.6741832 278.35151361 111.25128174 290.25384521 C112.50211844 293.50648439 113.75299598 296.75910786 115.00390625 300.01171875 C115.41660767 301.084823 115.82930908 302.15792725 116.2545166 303.2635498 C118.74314054 309.73387482 121.23317263 316.20365595 123.72433472 322.67300415 C133.12643018 347.0896787 142.49664209 371.51812395 151.82147217 395.9644165 C160.67329946 419.16850174 169.58275851 442.35017707 178.50732422 465.52636719 C182.71533459 476.45426294 186.92057237 487.38322538 191.125 498.3125 C191.54081329 499.39332855 191.95662659 500.4741571 192.38504028 501.58773804 C198.64033308 517.84851995 204.87812502 534.11593668 211.1050415 550.38760376 C217.05371128 565.9313627 223.02221782 581.46741534 229 597 C235.34795136 613.49442702 241.68325378 629.99359724 248 646.5 C254.2769623 662.9015027 260.5693022 679.29702299 266.875 695.6875 C267.49956589 697.31103897 267.49956589 697.31103897 268.13674927 698.96737671 C272.33394659 709.87745479 276.53271891 720.78692565 280.73339844 731.69566345 C290.1322619 756.1048646 299.49954157 780.52572532 308.82147217 804.9644165 C317.67329946 828.16850174 326.58275851 851.35017707 335.50732422 874.52636719 C339.71533459 885.45426294 343.92057237 896.38322538 348.125 907.3125 C348.54081329 908.39332855 348.95662659 909.4741571 349.38504028 910.58773804 C355.64136266 926.85119638 361.88042476 943.1211987 368.10806274 959.3956604 C373.57716962 973.68727527 379.06440355 987.97181911 384.56222534 1002.25241089 C393.11540829 1024.4693083 401.62654062 1046.70194475 410.1105957 1068.9453125 C410.53211411 1070.05029083 410.95363251 1071.15526917 411.38792419 1072.29373169 C412.19547766 1074.41129501 413.0025928 1076.52902556 413.80921936 1078.64694214 C415.42755466 1082.89371128 417.04879995 1087.13887493 418.70361328 1091.37158203 C419.16364746 1092.54962402 419.62368164 1093.72766602 420.09765625 1094.94140625 C420.47543213 1095.89861572 420.85320801 1096.8558252 421.24243164 1097.84204102 C422 1100 422 1100 422 1102 C435.294936 1097.4481941 448.39657367 1092.43386653 461.49478149 1087.34710693 C467.16219677 1085.14646037 472.83235068 1082.95290203 478.50268745 1080.75979614 C479.80837593 1080.25478944 481.11403351 1079.74970283 482.41966057 1079.24453735 C496.20126541 1073.91268997 510.00428597 1068.63753516 523.8125 1063.375 C541.61412258 1056.58823738 559.40735011 1049.78033318 577.1875 1042.9375 C578.25613281 1042.52625885 579.32476563 1042.1150177 580.42578125 1041.6913147 C587.95090112 1038.79519722 595.47551425 1035.89776453 603 1033 C611.60381084 1029.68657518 620.20785751 1026.37376459 628.8125 1023.0625 C629.87611755 1022.65318237 630.93973511 1022.24386475 632.0355835 1021.82214355 C650.29211917 1014.7978215 668.56398351 1007.81403824 686.84039307 1000.84161377 C701.1292117 995.39026861 715.41495524 989.93132621 729.6875 984.4375 C730.44906403 984.1443692 731.21062805 983.8512384 731.99526978 983.54922485 C736.78257956 981.70631209 741.56951804 979.86243609 746.35638428 978.01837158 C755.57031057 974.4689901 764.78485606 970.92121893 774 967.375 C775.0926416 966.95449371 776.1852832 966.53398743 777.31103516 966.10073853 C795.40390157 959.13897154 813.5128404 952.2199223 831.62695312 945.31365967 C850.4582413 938.13236604 869.26530356 930.88974729 888.06350708 923.62234497 C908.2134448 915.83354164 928.38756285 908.1096143 948.57299805 900.41333008 C961.04293191 895.65846562 973.5078007 890.89108141 985.96127319 886.09326172 C992.9729004 883.3921767 999.98617064 880.69536086 1007 878 C1007.9182959 877.64707886 1008.8365918 877.29415771 1009.78271484 876.93054199 C1015.66988147 874.66869554 1021.55865959 872.41111311 1027.4493103 870.15835571 C1029.34545314 869.432627 1031.24115088 868.7057342 1033.13638306 867.97763062 C1035.75249342 866.97283202 1038.37016556 865.97221588 1040.98828125 864.97265625 C1042.16487305 864.51921341 1042.16487305 864.51921341 1043.36523438 864.05661011 C1048.77171073 862 1048.77171073 862 1051 862 C1053.65354933 868.92861491 1056.30537299 875.8578878 1058.95511913 882.78795815 C1060.18614319 886.00738875 1061.41771507 889.22660733 1062.65063477 892.4453125 C1064.07481268 896.16340096 1065.49643499 899.88246229 1066.91796875 903.6015625 C1067.35151169 904.73236237 1067.78505463 905.86316223 1068.23173523 907.02822876 C1071.26822725 914.98045197 1074.16584881 922.97386681 1077 931 C1065.76772426 935.78121407 1054.38518308 940.16129418 1043 944.5625 C1040.82501258 945.40440805 1038.65004557 946.24636882 1036.47509766 947.08837891 C1001.73659621 960.53131636 966.96253475 973.88076643 932.16043091 987.15811157 C913.16070171 994.4066982 894.173918 1001.68802475 875.19775391 1008.99804688 C864.96631111 1012.93916416 854.73317164 1016.87587439 844.5 1020.8125 C842.84419418 1021.4495134 842.84419418 1021.4495134 841.15493774 1022.09939575 C825.60848664 1028.07986858 810.05673809 1034.04634135 794.5 1040 C778.0985293 1046.27704618 761.7029772 1052.56930213 745.3125 1058.875 C744.23014069 1059.29137726 743.14778137 1059.70775452 742.03262329 1060.13674927 C731.12251965 1064.33395643 720.21302232 1068.53273623 709.30426025 1072.73342896 C703.93220214 1074.80196016 698.55991836 1076.86990463 693.1875 1078.9375 C692.11862549 1079.34887207 691.04975098 1079.76024414 689.94848633 1080.18408203 C672.10127047 1087.05138906 654.23765018 1093.87515657 636.36947632 1100.68771362 C617.53332006 1107.87085662 598.72135331 1115.11523491 579.91836548 1122.38470459 C561.3248322 1129.57215277 542.71044081 1136.70316581 524.08300781 1143.80224609 C505.35884811 1150.9394615 486.65926252 1158.138712 467.96936035 1165.3651123 C447.03293441 1173.45892295 426.07077323 1181.48356828 405.09570312 1189.4765625 C403.42535004 1190.11322845 403.42535004 1190.11322845 401.72125244 1190.76275635 C399.64666955 1191.55335014 397.57193197 1192.34353819 395.49700928 1193.13323975 C394.11838715 1193.65848236 394.11838715 1193.65848236 392.71191406 1194.19433594 C391.9178717 1194.49660095 391.12382935 1194.79886597 390.3057251 1195.11029053 C388.66635926 1195.74287214 387.05072109 1196.4384913 385.45550537 1197.175354 C382.72959532 1198.09081151 381.59178163 1198.21973823 379 1197 C377.5824252 1194.18557461 376.45775711 1191.52691708 375.37890625 1188.58203125 C374.86935143 1187.2502459 374.86935143 1187.2502459 374.34950256 1185.89155579 C373.60939037 1183.95256211 372.87627353 1182.01088757 372.14923096 1180.06695557 C370.99244324 1176.97983324 369.81383192 1173.9019182 368.62841797 1170.82568359 C366.49949305 1165.29536344 364.38744598 1159.75878661 362.28097534 1154.21987915 C359.96168407 1148.12180211 357.63667142 1142.02590583 355.3125 1135.9296875 C354.85201767 1134.72143814 354.39153534 1133.51318878 353.917099 1132.26832581 C350.10811055 1122.27627412 346.28010948 1112.2916643 342.4375 1102.3125 C341.99943527 1101.17450455 341.99943527 1101.17450455 341.55252075 1100.01351929 C339.70850144 1095.22328283 337.86356084 1090.43340162 336.01837158 1085.64361572 C332.46899011 1076.42968945 328.92116824 1067.21516343 325.375 1058 C324.95515839 1056.90902008 324.53531677 1055.81804016 324.10275269 1054.69400024 C317.54109228 1037.63975895 311.01221267 1020.57317774 304.5 1003.5 C295.20846465 979.14078494 285.86139785 954.80325184 276.49267578 930.47363281 C272.28466541 919.54573706 268.07942763 908.61677462 263.875 897.6875 C263.45918671 896.60667145 263.04337341 895.5258429 262.61495972 894.41226196 C256.35863734 878.14880362 250.11957524 861.8788013 243.89193726 845.6043396 C237.5911551 829.1394297 231.26363106 812.68491115 224.92962646 796.23275757 C218.46461163 779.43744376 212.03619749 762.62842248 205.625 745.8125 C198.00804374 725.83413268 190.3322046 705.87917727 182.62234497 685.93649292 C175.72721625 668.09852624 168.87659054 650.24407731 162.0625 632.375 C161.62181183 631.21938568 161.18112366 630.06377136 160.7270813 628.87313843 C160.29064301 627.72866241 159.85420471 626.5841864 159.40454102 625.4050293 C154.43259355 612.36758042 149.45031184 599.33429499 144.4375 586.3125 C144.14418793 585.55048279 143.85087585 584.78846558 143.54867554 584.00335693 C141.70594401 579.21650562 139.86225887 574.43002193 138.01837158 569.64361572 C134.4689901 560.42968943 130.92121893 551.21514394 127.375 542 C126.95449371 540.9073584 126.53398743 539.8147168 126.10073853 538.68896484 C119.13897154 520.59609843 112.2199223 502.4871596 105.31365967 484.37304688 C98.58615037 466.73170356 91.80806826 449.11039959 85 431.5 C77.74948398 412.74512279 70.53838425 393.97583371 63.375 375.1875 C56.58760037 357.38611893 49.78033408 339.59265222 42.9375 321.8125 C42.52625885 320.74386719 42.1150177 319.67523438 41.6913147 318.57421875 C38.79519722 311.04909888 35.89776453 303.52448575 33 296 C29.68657518 287.39618915 26.37381112 278.79212459 23.0625 270.1875 C22.65085602 269.11790039 22.23921204 268.04830078 21.81509399 266.94628906 C14.94805641 249.09980756 8.12456479 231.23691938 1.31228638 213.36947632 C-5.86854671 194.53937726 -13.11071252 175.73350707 -20.37765503 156.93649292 C-27.27278381 139.09852609 -34.12338978 121.24406996 -40.9375 103.375 C-41.37287079 102.23334381 -41.80824158 101.09168762 -42.25680542 99.91543579 C-42.68695953 98.78745575 -43.11711365 97.65947571 -43.56030273 96.49731445 C-48.87767641 82.5542662 -54.20723087 68.61604061 -59.5625 54.6875 C-60.02219681 53.49081696 -60.02219681 53.49081696 -60.49118042 52.2699585 C-61.34881912 50.03774819 -62.20741788 47.80590999 -63.06640625 45.57421875 C-63.32564377 44.89951538 -63.58488129 44.22481201 -63.85197449 43.52966309 C-65.61523545 38.95466142 -67.44646685 34.41163418 -69.35131836 29.89379883 C-70 28 -70 28 -70 25 C-69.30810577 24.73326477 -68.61621155 24.46652954 -67.90335083 24.19171143 C-61.34282294 21.66240475 -54.78252944 19.13249127 -48.22249031 16.60191727 C-44.85092722 15.30134074 -41.47927792 14.00098872 -38.10742188 12.70117188 C-34.8457853 11.44383363 -31.58438791 10.1858768 -28.32314682 8.92751312 C-26.49009828 8.22040144 -24.65681052 7.51390998 -22.82351685 6.80743408 C-21.68308929 6.36727966 -20.54266174 5.92712524 -19.36767578 5.47363281 C-18.28762268 5.05843384 -17.20756958 4.64323486 -16.0947876 4.2154541 C-14.06881517 3.41976896 -12.0522734 2.59953228 -10.04730225 1.75231934 C-8.71073578 1.18801208 -8.71073578 1.18801208 -7.34716797 0.61230469 C-6.57517059 0.2764032 -5.80317322 -0.05949829 -5.00778198 -0.40557861 C-3 -1 -3 -1 0 0 Z " fill="#0073D9" transform="translate(904,15)"/>
<path d="M0 0 C0.83571533 0.00215515 1.67143066 0.0043103 2.5324707 0.00653076 C56.31334525 0.22875516 104.3798614 21.95823671 142.6875 59.375 C180.08319685 97.74676724 198.55173813 149.19884862 198.375 202.3125 C196.86396922 254.20968282 175.75788798 301.52848959 139.375 338.3125 C138.80330078 338.9017627 138.23160156 339.49102539 137.64257812 340.09814453 C133.88472662 343.93402451 130.00108079 347.40942531 125.75 350.6875 C125.14591309 351.15591309 124.54182617 351.62432617 123.91943359 352.10693359 C80.78067717 385.27934368 28.6492904 400.2557048 -25.6796875 393.74609375 C-78.07247202 386.63955496 -125.65182382 358.62907436 -157.625 316.625 C-189.0648105 274.36512301 -203.06736023 220.28594061 -195.5 168 C-194.96862647 164.74733999 -194.32977404 161.53179128 -193.625 158.3125 C-193.42632324 157.39791016 -193.22764648 156.48332031 -193.02294922 155.54101562 C-185.39303122 121.59216702 -169.64688712 91.31047059 -146.625 65.3125 C-145.82964844 64.3946875 -145.03429687 63.476875 -144.21484375 62.53125 C-139.66104669 57.34476416 -134.92648408 52.72100361 -129.625 48.3125 C-128.75359375 47.55324219 -127.8821875 46.79398438 -126.984375 46.01171875 C-91.65904603 15.64515922 -46.37569805 -0.21574922 0 0 Z M-92.8125 116.625 C-115.26081285 141.9826142 -124.65314067 174.91330275 -122.625 208.3125 C-119.9388371 241.28026873 -103.26016597 270.72358144 -78.625 292.3125 C-52.03988954 314.52620777 -19.71522868 322.52821135 14.375 320.3125 C38.83909987 317.71334337 61.64587399 307.02244996 80.375 291.3125 C81.19484375 290.64476562 82.0146875 289.97703125 82.859375 289.2890625 C88.82370999 284.25022777 93.65582445 278.51461092 98.375 272.3125 C99.48875 270.86423828 99.48875 270.86423828 100.625 269.38671875 C119.98623125 242.93309202 127.23483269 209.97431942 122.6875 177.609375 C117.29712602 146.11040133 99.64423063 116.89789732 73.87109375 97.875 C19.84303584 59.95914987 -48.05292934 69.58600676 -92.8125 116.625 Z " fill="#0073D9" transform="translate(989.625,1004.6875)"/>
<path d="M0 0 C1.12728516 1.06541016 1.12728516 1.06541016 2.27734375 2.15234375 C16.66819998 16.08725206 27.77793993 33.31618549 37 51 C37.31420898 51.60102539 37.62841797 52.20205078 37.95214844 52.82128906 C61.23668866 98.1230146 63.81772652 153.37424067 48.5390625 201.58203125 C31.9587683 250.81810112 -3.4614952 292.73446267 -49.9375 316.125 C-52.61407865 317.44028376 -55.30320101 318.7267572 -58 320 C-59.69576172 320.804375 -59.69576172 320.804375 -61.42578125 321.625 C-107.00009232 342.18967151 -161.22671448 342.47771325 -208 326 C-214.16329888 323.6660686 -220.10049707 320.93000019 -226 318 C-227.06806885 317.47817139 -227.06806885 317.47817139 -228.15771484 316.94580078 C-244.32990556 308.98180783 -258.52932828 298.9286343 -272 287 C-272.9178125 286.20464844 -273.835625 285.40929688 -274.78125 284.58984375 C-279.96901791 280.03492102 -284.62578059 275.33462686 -289 270 C-289.41975098 269.50322754 -289.83950195 269.00645508 -290.27197266 268.49462891 C-315.15710799 239.02197297 -330.64813825 204.2087835 -336 166 C-336.15251221 164.98425903 -336.15251221 164.98425903 -336.30810547 163.94799805 C-342.69324511 115.90010678 -329.790194 64.0025647 -301 25 C-300.6090918 24.46922852 -300.21818359 23.93845703 -299.81542969 23.39160156 C-266.4344542 -21.52145376 -219.27267325 -47.88369255 -164.421875 -56.56640625 C-103.09692117 -64.33703396 -44.13466666 -42.29508347 0 0 Z M-226 52 C-226.73863281 52.66257812 -227.47726563 53.32515625 -228.23828125 54.0078125 C-249.73152817 74.08853698 -262.04270643 105.34677832 -263.28125 134.390625 C-264.11844554 167.62263695 -253.10980723 199.264645 -230.22070312 223.68579102 C-207.14844825 247.71141189 -176.99223437 262.55520545 -143.40722656 263.28100586 C-132.31069583 263.39169659 -121.7703325 262.71934837 -111 260 C-110.34128906 259.83371094 -109.68257812 259.66742187 -109.00390625 259.49609375 C-88.21985255 254.02660593 -70.49115538 243.8774012 -55 229 C-54.09378906 228.15695312 -53.18757812 227.31390625 -52.25390625 226.4453125 C-36.17811912 211.06071732 -25.866869 191.30162355 -20 170 C-19.6596875 168.77667969 -19.319375 167.55335938 -18.96875 166.29296875 C-11.85569489 135.3709375 -18.56161967 103.22290093 -34 76 C-36.45688875 72.14678836 -39.14136592 68.56350276 -42 65 C-42.65162109 64.18015625 -42.65162109 64.18015625 -43.31640625 63.34375 C-61.52691405 40.61865948 -85.69204882 25.81636218 -114 19 C-115.00417969 18.75378906 -116.00835937 18.50757813 -117.04296875 18.25390625 C-157.15086298 10.40553289 -196.88926764 24.55138123 -226 52 Z " fill="#0073D9" transform="translate(376,1064)"/>
</svg>
